<svg width="88" height="89" viewBox="0 0 88 89" fill="none" xmlns="http://www.w3.org/2000/svg">
<g id="Group">
<g id="Vector">
<path d="M14.8359 19.3583H27.9609H14.8359ZM44.0026 19.3583H36.7109H44.0026ZM27.9609 19.3583H36.7109H27.9609ZM27.9609 19.3583V15.3333V19.3583ZM36.7109 19.3583C35.1693 24.8583 31.9526 30.0583 28.2734 34.6292L36.7109 19.3583ZM18.8984 44.5C21.8693 41.7667 25.2318 38.4167 28.2734 34.6292L18.8984 44.5ZM28.2734 34.6292C26.3984 32.4292 23.7734 28.875 23.0234 27.2667L28.2734 34.6292ZM28.2734 34.6292L33.8984 40.475L28.2734 34.6292Z" fill="white"/>
<path d="M14.8359 19.3583H27.9609M27.9609 19.3583H36.7109M27.9609 19.3583V15.3333M44.0026 19.3583H36.7109M36.7109 19.3583C35.1693 24.8583 31.9526 30.0583 28.2734 34.6292M28.2734 34.6292C25.2318 38.4167 21.8693 41.7667 18.8984 44.5M28.2734 34.6292C26.3984 32.4292 23.7734 28.875 23.0234 27.2667M28.2734 34.6292L33.8984 40.475" stroke="white" stroke-width="4" stroke-linecap="round" stroke-linejoin="round"/>
</g>
<path id="Vector_2" d="M23.2609 65.2417C23.4901 72.4083 24.2693 76.8042 26.9526 80.075C27.6447 80.9181 28.4178 81.6913 29.2609 82.3833C33.8776 86.1667 40.7193 86.1667 54.4193 86.1667C68.1193 86.1667 74.9651 86.1667 79.5776 82.3833C80.422 81.6889 81.1915 80.9194 81.8859 80.075C85.6693 75.4583 85.6693 68.6167 85.6693 54.9167C85.6693 41.2208 85.6693 34.3708 81.8859 29.7583C81.1939 28.9152 80.4207 28.142 79.5776 27.45C76.3193 24.7792 71.9484 23.9917 64.8359 23.7625M23.2609 65.2417C16.0943 65.0125 11.6984 64.2333 8.4276 61.55C7.58448 60.8579 6.81132 60.0848 6.11927 59.2417C2.33594 54.625 2.33594 47.7833 2.33594 34.0833C2.33594 20.3875 2.33594 13.5375 6.11927 8.92499C6.81132 8.08187 7.58448 7.30872 8.4276 6.61666C13.0443 2.83333 19.8859 2.83333 33.5859 2.83333C47.2818 2.83333 54.1318 2.83333 58.7443 6.61666C59.5874 7.30872 60.3605 8.08187 61.0526 8.92499C63.7359 12.1958 64.5151 16.5917 64.7443 23.7583L64.8359 23.7625M23.2609 65.2417L64.8359 23.7625" stroke="white" stroke-width="4" stroke-linecap="round" stroke-linejoin="round"/>
<path id="Vector_3" d="M48.1719 73.6667L51.6427 65.3333M51.6427 65.3333L58.5885 48.6667L65.5344 65.3333M51.6427 65.3333H65.5344M69.0052 73.6667L65.5344 65.3333" stroke="white" stroke-width="4" stroke-linecap="round" stroke-linejoin="round"/>
</g>
</svg>
