<svg width="100" height="101" viewBox="0 0 100 101" fill="none" xmlns="http://www.w3.org/2000/svg">
<g id="lip sync">
<path id="Vector" d="M7.8 50.4479C5.68962 47.0712 4.17188 43.4041 4.17188 40.1666C4.17188 37.2854 5.71071 34.3155 7.33629 31.929C9.08796 29.3574 11.4738 26.6991 14.154 24.301C16.8368 21.9006 19.9222 19.6645 23.1235 18.0087C26.2813 16.3753 29.8224 15.1666 33.3385 15.1666C39.2821 15.1666 42.4202 16.4014 44.9673 17.7111C45.207 17.8343 45.4292 17.9505 45.6371 18.0592L45.6723 18.0776L45.6727 18.0779C47.3066 18.9334 48.0704 19.3333 50.0052 19.3333V27.6666C45.9556 27.6666 43.5781 26.4045 41.7635 25.4409L41.754 25.4358C41.5483 25.3267 41.3496 25.2213 41.157 25.1222C39.6523 24.3485 37.8116 23.5 33.3385 23.5C31.6464 23.5 29.4582 24.1142 26.952 25.4105C24.4892 26.6843 21.9757 28.4847 19.7106 30.5114C17.6627 32.3437 15.9057 34.2823 14.6209 36.0554C14.483 36.2458 14.3505 36.4341 14.2236 36.6204C14.1751 36.6916 14.1277 36.762 14.0813 36.832C16.5933 37.1995 19.875 37.6575 23.554 38.1154C31.8952 39.1529 42.0998 40.1666 50.0052 40.1666V48.5C41.5578 48.5 30.9288 47.4304 22.5251 46.385C19.493 46.0075 16.7272 45.6304 14.4265 45.302C14.5642 45.5387 14.7108 45.782 14.8667 46.0312C16.5795 48.772 19.159 51.8404 22.5085 54.7116C29.2098 60.4554 38.6973 65.1666 50.0052 65.1666V73.5C36.3131 73.5 24.9672 67.7945 17.0852 61.0387C13.143 57.6595 9.99342 53.9575 7.8 50.4479Z" fill="white"/>
<path id="Vector_2" d="M66.667 17.2496C69.5358 17.2497 72.5296 18.182 75.3604 19.5748L75.9248 19.859C78.9414 21.4194 81.8835 23.5472 84.4619 25.8541V25.8531C86.8778 28.0149 89.0213 30.3774 90.6318 32.649L90.9473 33.1022C92.2393 34.9988 93.2945 37.039 93.6338 38.9371L84.9492 43.2867C83.3108 43.5193 81.4495 43.7754 79.4336 44.0367L77.2227 44.318C69.5212 45.276 60.0202 46.2411 52.083 46.3932V42.2252C58.719 42.0937 66.5508 41.3768 73.4912 40.5699L76.708 40.1832H76.709C80.4058 39.7231 83.7022 39.2623 86.2256 38.8932L89.4688 38.4186L87.6621 35.6832L87.5059 35.4508L87.5029 35.4459L87.0713 34.8336V34.8326L86.5303 34.111C85.4056 32.6564 84.026 31.1427 82.4736 29.6832L81.6836 28.9586C79.4622 26.971 76.9885 25.1686 74.5068 23.8229L74.0107 23.5602L73.5117 23.3082C71.0271 22.0869 68.6807 21.4167 66.667 21.4166C64.2996 21.4166 62.5413 21.641 61.1279 22.0026C60.0555 22.2769 59.2262 22.6191 58.5391 22.9479L57.8955 23.2692L57.3008 23.5817L57.2656 23.6002H57.2646C55.9107 24.3192 54.3827 25.1277 52.083 25.444V21.2272C52.3679 21.1686 52.6466 21.0975 52.9238 21.0074C53.5515 20.8035 54.1374 20.5237 54.7188 20.2252L55.2998 19.9225H55.3008L55.9902 19.5641C58.2768 18.3884 61.091 17.2496 66.667 17.2496Z" stroke="white" stroke-width="4.16667"/>
<g id="Vector_3">
<path d="M54.1719 63.6775V52.9608H59.1719V57.4838L62.6656 53.9655C64.7503 51.7407 67.3251 50.1147 70.1518 49.2387C72.9916 48.3583 75.9931 48.2632 78.8763 48.9624C81.7596 49.6614 84.4306 51.132 86.6401 53.2365C88.8496 55.3413 90.5256 58.0113 91.5118 60.9978L86.7983 62.7854C86.0938 60.6522 84.8966 58.7449 83.3186 57.2416C81.7403 55.7383 79.8323 54.6881 77.7728 54.1887C75.7133 53.6893 73.5693 53.7571 71.5411 54.3859C69.5126 55.0147 67.6661 56.1839 66.1733 57.7844C66.1548 57.804 66.1361 57.8235 66.1171 57.8428L62.9833 60.9983H66.6718V66.3567H56.6719C55.2911 66.3567 54.1719 65.1572 54.1719 63.6775Z" fill="white"/>
<path d="M93.3386 68.1437H83.3386V73.502H87.0263L83.8931 76.6573C83.8741 76.6763 83.8553 76.6959 83.8368 76.7157C82.3441 78.3162 80.4973 79.4854 78.4691 80.1142C76.4406 80.7428 74.2968 80.8108 72.2373 80.3114C70.1778 79.812 68.2699 78.7615 66.6916 77.2582C65.1134 75.755 63.9163 73.8479 63.2119 71.7145L58.4984 73.502C59.4844 76.4885 61.1606 79.1588 63.3701 81.2633C65.5796 83.3681 68.2506 84.8384 71.1338 85.5377C74.0171 86.2367 77.0186 86.1418 79.8583 85.2615C82.6851 84.3851 85.2598 82.7594 87.3443 80.5346L90.8386 77.0158V81.5396H95.8385V70.8229C95.8385 69.3432 94.7193 68.1437 93.3386 68.1437Z" fill="white"/>
</g>
</g>
</svg>
