<svg width="100" height="101" viewBox="0 0 100 101" fill="none" xmlns="http://www.w3.org/2000/svg">
<g id="material-symbols:speech-to-text-rounded">
<path id="Vector" d="M70.8333 42.1667C68.5417 42.1667 66.5806 41.368 64.95 39.7708C63.3194 38.1736 62.5028 36.1944 62.5 33.8333V17.1667C62.5 14.8056 63.3167 12.8264 64.95 11.2292C66.5833 9.63194 68.5444 8.83333 70.8333 8.83333C73.1944 8.83333 75.1736 9.63194 76.7708 11.2292C78.368 12.8264 79.1667 14.8056 79.1667 17.1667V33.8333C79.1667 36.1944 78.368 38.1736 76.7708 39.7708C75.1736 41.368 73.1944 42.1667 70.8333 42.1667ZM20.8333 92.1667C18.5417 92.1667 16.5806 91.3514 14.95 89.7208C13.3194 88.0903 12.5028 86.1278 12.5 83.8333V17.1667C12.5 14.875 13.3167 12.9139 14.95 11.2833C16.5833 9.65277 18.5444 8.83611 20.8333 8.83333H50C51.1806 8.83333 52.1708 9.23333 52.9708 10.0333C53.7708 10.8333 54.1694 11.8222 54.1667 13C54.1639 14.1778 53.7639 15.1681 52.9667 15.9708C52.1694 16.7736 51.1806 17.1722 50 17.1667H20.8333V83.8333H66.6667V79.6667C66.6667 78.4861 67.0667 77.4972 67.8667 76.7C68.6667 75.9028 69.6556 75.5028 70.8333 75.5C72.0111 75.4972 73.0014 75.8972 73.8042 76.7C74.6069 77.5028 75.0056 78.4917 75 79.6667V83.8333C75 86.125 74.1847 88.0875 72.5542 89.7208C70.9236 91.3542 68.9611 92.1694 66.6667 92.1667H20.8333ZM54.1667 75.5H33.3333C32.1528 75.5 31.1639 75.1 30.3667 74.3C29.5694 73.5 29.1694 72.5111 29.1667 71.3333C29.1639 70.1555 29.5639 69.1667 30.3667 68.3667C31.1694 67.5667 32.1583 67.1667 33.3333 67.1667H54.1667C55.3472 67.1667 56.3375 67.5667 57.1375 68.3667C57.9375 69.1667 58.3361 70.1555 58.3333 71.3333C58.3306 72.5111 57.9306 73.5014 57.1333 74.3042C56.3361 75.1069 55.3472 75.5055 54.1667 75.5ZM45.8333 63H33.3333C32.1528 63 31.1639 62.6 30.3667 61.8C29.5694 61 29.1694 60.0111 29.1667 58.8333C29.1639 57.6555 29.5639 56.6667 30.3667 55.8667C31.1694 55.0667 32.1583 54.6667 33.3333 54.6667H45.8333C47.0139 54.6667 48.0042 55.0667 48.8042 55.8667C49.6042 56.6667 50.0028 57.6555 50 58.8333C49.9972 60.0111 49.5972 61.0014 48.8 61.8042C48.0028 62.6069 47.0139 63.0055 45.8333 63ZM70.8333 48.4167C74.1667 48.4167 77.0833 47.4625 79.5833 45.5542C82.0833 43.6458 83.8194 41.1972 84.7917 38.2083C85.1389 37.0278 85.7292 36.0042 86.5625 35.1375C87.3958 34.2708 88.4028 33.8361 89.5833 33.8333C90.7639 33.8305 91.7542 34.3 92.5542 35.2417C93.3542 36.1833 93.6139 37.2417 93.3333 38.4167C92.3611 43 90.2264 46.9236 86.9292 50.1875C83.6319 53.4514 79.6556 55.5 75 56.3333V63C75 64.1805 74.6 65.1708 73.8 65.9708C73 66.7708 72.0111 67.1694 70.8333 67.1667C69.6556 67.1639 68.6667 66.7639 67.8667 65.9667C67.0667 65.1694 66.6667 64.1805 66.6667 63V56.3333C62.0833 55.5 58.125 53.4514 54.7917 50.1875C51.4583 46.9236 49.3056 43 48.3333 38.4167C48.0556 37.2361 48.3167 36.1778 49.1167 35.2417C49.9167 34.3056 50.9056 33.8361 52.0833 33.8333C53.2611 33.8305 54.2681 34.2653 55.1042 35.1375C55.9403 36.0097 56.5306 37.0333 56.875 38.2083C57.8472 41.1944 59.6014 43.643 62.1375 45.5542C64.6736 47.4653 67.5722 48.4194 70.8333 48.4167Z" fill="white"/>
</g>
</svg>
